<svg xmlns="http://www.w3.org/2000/svg" viewBox="0 0 340 120" fill="none">
  <!-- Icon -->
  <g transform="translate(0, 10)">
    <path d="M18 52C18 52 8 38 14 22C20 6 38 8 42 24C46 40 32 58 18 52Z" fill="#12a6c8"/>
    <path d="M22 58C22 58 10 48 16 32C22 16 40 18 44 34C48 50 34 66 22 58Z" fill="#0061af"/>
    <path d="M38 62C38 62 28 50 34 36C40 22 56 28 58 42C60 56 48 68 38 62Z" fill="#50b848"/>
  </g>
  <!-- Wordmark -->
  <text x="72" y="52" font-family="Mintage, 'Cormorant Garamond', Georgia, serif" font-size="36" fill="#0061af">Zerona</text>
  <text x="72" y="72" font-family="Melissa, 'Josefin Sans', sans-serif" font-size="14" fill="#8a9aab" letter-spacing="2">Derma</text>
  <!-- Tagline -->
  <text x="72" y="105" font-family="Montserrat, sans-serif" font-size="10" fill="#000000" letter-spacing="4" font-weight="600">ZERO IMPERFECTIONS</text>
</svg>
